<?xml version="1.0" encoding="UTF-8"?><svg id="a" xmlns="http://www.w3.org/2000/svg" viewBox="0 0 1920 1080"><g id="b"><path d="M527.38,628.22v-193.77h42.66l1.75,46.62h-3.32c2.8-11.55,7.14-20.97,13.03-28.25,5.88-7.28,12.76-12.68,20.63-16.2,7.87-3.52,16.11-5.29,24.74-5.29,14.1,0,25.5,4.39,34.18,13.17,8.68,8.78,14.83,21.72,18.45,38.82h-5.42c2.68-11.55,7.26-21.17,13.73-28.86,6.47-7.68,14.16-13.46,23.08-17.33,8.92-3.87,18.45-5.81,28.59-5.81,11.77,0,22.32,2.54,31.65,7.63,9.32,5.09,16.73,12.51,22.21,22.27,5.48,9.77,8.22,21.87,8.22,36.31v130.68h-45.46v-123.75c0-12.02-3.32-20.8-9.97-26.34-6.64-5.55-14.63-8.32-23.95-8.32-7.23,0-13.52,1.56-18.88,4.68-5.36,3.12-9.47,7.43-12.33,12.91-2.86,5.49-4.28,11.87-4.28,19.15v121.67h-44.41v-125.83c0-9.82-3.09-17.71-9.27-23.66-6.18-5.95-14.11-8.93-23.78-8.93-6.64,0-12.74,1.5-18.27,4.51-5.54,3.01-9.94,7.45-13.2,13.35-3.27,5.89-4.9,13.17-4.9,21.84v118.72h-45.46Z" style="fill:#f2f2f2;"/><path d="M864.21,632.2c-19.7,0-36.63-4.1-50.79-12.31-14.16-8.2-25.06-19.76-32.7-34.66-7.64-14.91-11.45-32.47-11.45-52.69s3.76-37.49,11.28-52.51c7.52-15.02,18.18-26.78,32-35.27,13.81-8.49,30.04-12.74,48.7-12.74,11.89,0,23.22,1.91,34.01,5.72,10.78,3.81,20.34,9.71,28.68,17.68,8.33,7.97,14.86,18.11,19.58,30.42s7.08,26.95,7.08,43.94v14.21h-159.81v-30.68h137.26l-21.33,9.01c0-10.86-1.69-20.42-5.07-28.68-3.38-8.26-8.42-14.7-15.12-19.32-6.7-4.62-15.07-6.93-25.09-6.93s-18.53,2.34-25.53,7.02c-6.99,4.68-12.33,10.92-16,18.72s-5.51,16.49-5.51,26.08v21.14c0,12.25,2.1,22.59,6.29,31.02,4.2,8.44,10.08,14.79,17.66,19.06,7.58,4.28,16.38,6.41,26.4,6.41,6.64,0,12.68-.95,18.1-2.86,5.42-1.91,10.11-4.74,14.08-8.49,3.96-3.75,6.93-8.35,8.92-13.78l41.79,8.49c-3.15,10.4-8.51,19.5-16.09,27.3-7.58,7.8-17.05,13.87-28.41,18.2-11.37,4.33-24.33,6.5-38.9,6.5Z" style="fill:#f2f2f2;"/><path d="M944.1,628.22v-193.77h44.06v32.41h2.1c3.5-11.21,9.62-19.84,18.36-25.91,8.74-6.07,18.71-9.1,29.9-9.1,2.56,0,5.42.12,8.57.35,3.15.23,5.83.52,8.04.87v41.42c-1.87-.58-4.9-1.1-9.09-1.56-4.2-.46-8.34-.69-12.41-.69-8.39,0-15.94,1.79-22.64,5.37-6.7,3.58-11.95,8.52-15.74,14.82-3.79,6.3-5.68,13.55-5.68,21.75v114.04h-45.46Z" style="fill:#f2f2f2;"/><path d="M1117.71,632.2c-19,0-35.5-4.19-49.48-12.57-13.99-8.38-24.8-20.04-32.44-35.01-7.64-14.96-11.45-32.38-11.45-52.25s3.82-37.7,11.45-52.77c7.63-15.08,18.45-26.78,32.44-35.1,13.99-8.32,30.48-12.48,49.48-12.48,10.84,0,20.92,1.39,30.25,4.16,9.32,2.77,17.66,6.79,25,12.05,7.34,5.26,13.49,11.64,18.45,19.15,4.95,7.51,8.48,16,10.58,25.48l-42.49,8.84c-1.28-4.97-3.12-9.5-5.51-13.61-2.39-4.1-5.33-7.6-8.83-10.49-3.5-2.89-7.52-5.11-12.06-6.67-4.55-1.56-9.56-2.34-15.04-2.34-10.61,0-19.41,2.8-26.4,8.41-6.99,5.61-12.24,13.17-15.74,22.7-3.5,9.53-5.25,20.36-5.25,32.5s1.75,22.65,5.25,32.24c3.5,9.59,8.74,17.19,15.74,22.79,6.99,5.61,15.79,8.41,26.4,8.41,5.6,0,10.69-.81,15.3-2.43,4.6-1.62,8.68-3.93,12.24-6.93,3.55-3,6.56-6.64,9-10.92,2.45-4.27,4.25-9.01,5.42-14.21l42.49,8.84c-2.1,9.71-5.63,18.37-10.58,26-4.96,7.63-11.13,14.13-18.53,19.5-7.4,5.37-15.8,9.51-25.18,12.39-9.39,2.89-19.56,4.33-30.51,4.33Z" style="fill:#f2f2f2;"/><path d="M1241.49,514.7v113.52h-45.46v-258.24h44.76v112.31h-4.72c5.48-16.75,13.52-29.32,24.13-37.7,10.61-8.38,23.89-12.57,39.87-12.57,13.4,0,25.15,2.83,35.23,8.49,10.08,5.66,17.89,13.92,23.43,24.78,5.54,10.86,8.31,24.09,8.31,39.69v123.23h-45.64v-116.29c0-12.94-3.38-23.11-10.14-30.5-6.76-7.39-16.09-11.09-27.98-11.09-8.04,0-15.21,1.73-21.51,5.2-6.29,3.47-11.25,8.52-14.86,15.17-3.61,6.65-5.42,14.65-5.42,24Z" style="fill:#f2f2f2;"/><path d="M1394.46,629.5c-3.4,0-6.27-1.16-8.63-3.47-2.36-2.31-3.54-5.15-3.54-8.52s1.18-6.28,3.54-8.59c2.36-2.31,5.23-3.47,8.63-3.47s6.35,1.16,8.7,3.47c2.36,2.31,3.54,5.17,3.54,8.59s-1.18,6.2-3.54,8.52-5.26,3.47-8.7,3.47Z" style="fill:#f2f2f2;"/><path d="M1444.19,629.95c-5.37,0-10.21-.97-14.52-2.9-4.31-1.93-7.7-4.78-10.19-8.55-2.48-3.77-3.73-8.41-3.73-13.94,0-4.77.9-8.72,2.7-11.83,1.8-3.11,4.23-5.6,7.3-7.46,3.07-1.86,6.53-3.27,10.38-4.22,3.85-.95,7.86-1.63,12.01-2.03,4.92-.55,8.92-1.03,12.01-1.43,3.09-.4,5.36-1.05,6.8-1.96s2.17-2.31,2.17-4.22v-.38c0-2.76-.56-5.11-1.67-7.05-1.12-1.93-2.77-3.42-4.98-4.45-2.2-1.03-4.93-1.54-8.17-1.54s-6.15.5-8.55,1.51c-2.41,1.01-4.37,2.31-5.89,3.92-1.52,1.61-2.64,3.34-3.35,5.2l-18.32-3.69c1.67-4.97,4.26-9.08,7.75-12.32s7.67-5.66,12.51-7.27c4.84-1.61,10.1-2.41,15.77-2.41,4,0,8.05.46,12.13,1.39,4.08.93,7.82,2.5,11.21,4.71,3.4,2.21,6.13,5.17,8.21,8.89,2.08,3.72,3.12,8.39,3.12,14.02v56.29h-18.93v-11.6h-.76c-1.27,2.36-3,4.56-5.21,6.59s-4.94,3.67-8.21,4.9c-3.27,1.23-7.13,1.85-11.59,1.85ZM1449.28,615.41c4.11,0,7.64-.8,10.61-2.41,2.96-1.61,5.27-3.73,6.92-6.37,1.65-2.64,2.47-5.51,2.47-8.63v-9.95c-.66.5-1.76.98-3.31,1.43-1.55.45-3.27.86-5.17,1.21-1.9.35-3.78.65-5.63.9-1.85.25-3.41.45-4.68.6-2.94.4-5.6,1.05-7.98,1.96-2.38.9-4.25,2.17-5.59,3.81-1.34,1.63-2.01,3.76-2.01,6.37,0,2.41.62,4.43,1.86,6.07,1.24,1.63,2.94,2.88,5.09,3.73,2.15.85,4.62,1.28,7.41,1.28Z" style="fill:#f2f2f2;"/><path d="M1500.53,659.72v-115.74h19.31v13.94h1.29c1.01-2.01,2.46-4.17,4.33-6.48,1.87-2.31,4.42-4.31,7.64-5.99,3.22-1.68,7.34-2.52,12.35-2.52,6.59,0,12.52,1.66,17.79,4.97,5.27,3.32,9.46,8.2,12.58,14.66,3.12,6.46,4.68,14.35,4.68,23.7s-1.52,17.11-4.56,23.59c-3.04,6.48-7.21,11.42-12.51,14.81-5.3,3.39-11.32,5.09-18.06,5.09-4.82,0-8.84-.82-12.09-2.45-3.24-1.63-5.83-3.6-7.75-5.92-1.93-2.31-3.4-4.47-4.41-6.48h-.84v44.84h-19.77ZM1540.06,613.6c4.41,0,8.11-1.19,11.1-3.58,2.99-2.39,5.25-5.65,6.77-9.8,1.52-4.14,2.28-8.83,2.28-14.05s-.75-9.88-2.24-13.98c-1.5-4.09-3.74-7.31-6.73-9.65-2.99-2.34-6.72-3.5-11.18-3.5s-8.03,1.13-11.02,3.39c-2.99,2.26-5.26,5.41-6.8,9.46-1.55,4.04-2.32,8.81-2.32,14.28s.77,10.27,2.32,14.39c1.55,4.12,3.83,7.32,6.84,9.61,3.02,2.29,6.68,3.43,10.99,3.43Z" style="fill:#f2f2f2;"/><path d="M1577.91,659.72v-115.74h19.31v13.94h1.29c1.01-2.01,2.46-4.17,4.33-6.48,1.87-2.31,4.42-4.31,7.64-5.99,3.22-1.68,7.34-2.52,12.35-2.52,6.59,0,12.52,1.66,17.79,4.97,5.27,3.32,9.46,8.2,12.58,14.66,3.12,6.46,4.68,14.35,4.68,23.7s-1.52,17.11-4.56,23.59-7.21,11.42-12.51,14.81c-5.3,3.39-11.32,5.09-18.06,5.09-4.82,0-8.84-.82-12.09-2.45-3.24-1.63-5.83-3.6-7.75-5.92-1.93-2.31-3.4-4.47-4.41-6.48h-.84v44.84h-19.77ZM1617.44,613.6c4.41,0,8.11-1.19,11.1-3.58,2.99-2.39,5.25-5.65,6.77-9.8,1.52-4.14,2.28-8.83,2.28-14.05s-.75-9.88-2.24-13.98c-1.5-4.09-3.74-7.31-6.73-9.65-2.99-2.34-6.72-3.5-11.18-3.5s-8.03,1.13-11.02,3.39c-2.99,2.26-5.26,5.41-6.8,9.46-1.55,4.04-2.32,8.81-2.32,14.28s.77,10.27,2.32,14.39c1.55,4.12,3.83,7.32,6.84,9.61,3.02,2.29,6.68,3.43,10.99,3.43Z" style="fill:#f2f2f2;"/><polygon points="384.54 434.69 464.87 532.06 384.54 628.22 327.71 628.22 408.41 531.45 329.98 434.69 384.54 434.69"/><polygon points="470.74 538.84 442.32 573.03 488.74 628.22 545.2 628.22 470.74 538.84" style="fill:#f2f2f2;"/><polygon points="470.74 524.07 442.32 489.87 488.74 434.69 545.2 434.69 470.74 524.07" style="fill:#f2f2f2;"/></g></svg>